<svg xmlns="http://www.w3.org/2000/svg" xmlns:xlink="http://www.w3.org/1999/xlink" xmlns:a="http://ns.adobe.com/AdobeSVGViewerExtensions/3.0/" version="1.1" x="0" y="0" width="625.7" height="166.5" viewBox="0 0 625.7 166.5" enable-background="new 0 0 625.166.5" xml:space="preserve"><defs><rect id="SVGID_1_" x="1.7" y="0" width="624" height="166.5"/></defs><use xlink:href="#SVGID_1_" overflow="visible" fill="#76C897"/><clipPath id="SVGID_2_"><use xlink:href="#SVGID_1_" overflow="visible"/></clipPath><g id="Petr_1_" clip-path="url(#SVGID_2_)"><path fill="#F8AD43" stroke="#294C67" stroke-width="4" stroke-linecap="round" stroke-linejoin="round" stroke-miterlimit="10" d="M195.7 120.5h88v32h-88c-8.8 0-16-7.2-16-16v0C179.7 127.7 186.8 120.5 195.7 120.5z"/><path fill="#FFFFFF" stroke="#294C67" stroke-width="4" stroke-linecap="round" stroke-linejoin="round" stroke-miterlimit="10" d="M195.7 142.5h88v-12h-88c-3.3 0-6 2.7-6 6v0C189.7 139.8 192.4 142.5 195.7 142.5z"/><rect x="40.7" y="119.5" fill="#FFFFFF" width="38" height="62"/><rect x="40.7" y="119.5" fill="none" stroke="#294C67" stroke-width="4" stroke-linecap="round" stroke-linejoin="round" stroke-miterlimit="10" width="38" height="62"/><polygon fill="#FEE2C0" stroke="#294C67" stroke-width="4" stroke-linecap="round" stroke-linejoin="round" stroke-miterlimit="10" points=" 60.9 140.5 66.1 119.5 53.7 119.5 58.7 140.5 "/><path fill="#FEE2C0" stroke="#294C67" stroke-width="4" stroke-linecap="round" stroke-linejoin="round" stroke-miterlimit="10" d="M59.7 126.5L59.7 126.5c-2.2 0-4-1.8-4-4v-14h8v14C63.7 124.7 61.9 126.5 59.7 126.5z"/><path fill="none" stroke="#294C67" stroke-width="16" stroke-linecap="round" stroke-linejoin="round" stroke-miterlimit="10" d="M88.7 177.6V136c0-5.8-4.7-10.5-10.5-10.5h0"/><path fill="none" stroke="#FFFFFF" stroke-width="8" stroke-linecap="round" stroke-linejoin="round" stroke-miterlimit="10" d="M88.7 177.6V136c0-5.8-4.7-10.5-10.5-10.5h0"/><line fill="none" stroke="#294C67" stroke-width="16" stroke-linecap="round" stroke-linejoin="round" stroke-miterlimit="10" x1="88.7" y1="186.5" x2="88.7" y2="178.5"/><line fill="none" stroke="#FEE2C0" stroke-width="8" stroke-linecap="round" stroke-linejoin="round" stroke-miterlimit="10" x1="88.7" y1="186.5" x2="88.7" y2="178.5"/><path fill="none" stroke="#294C67" stroke-width="16" stroke-linecap="round" stroke-linejoin="round" stroke-miterlimit="10" d="M30.7 177.6V136c0-5.8 4.7-10.5 10.5-10.5h0"/><path fill="none" stroke="#FFFFFF" stroke-width="8" stroke-linecap="round" stroke-linejoin="round" stroke-miterlimit="10" d="M30.7 177.6V136c0-5.8 4.7-10.5 10.5-10.5h0"/><line fill="none" stroke="#294C67" stroke-width="16" stroke-linecap="round" stroke-linejoin="round" stroke-miterlimit="10" x1="30.7" y1="186.5" x2="30.7" y2="178.5"/><line fill="none" stroke="#FEE2C0" stroke-width="8" stroke-linecap="round" stroke-linejoin="round" stroke-miterlimit="10" x1="30.7" y1="186.5" x2="30.7" y2="178.5"/><polygon fill="#3EB3CF" stroke="#294C67" stroke-width="4" stroke-linecap="round" stroke-linejoin="round" stroke-miterlimit="10" points=" 40.7 172.5 40.7 181.5 40.7 227.5 50.7 227.5 50.7 181.5 68.7 181.5 68.7 227.5 78.7 227.5 78.7 181.5 78.7 172.5 "/><rect x="68.7" y="216.5" fill="#EBF3F7" stroke="#294C67" stroke-width="4" stroke-linecap="round" stroke-linejoin="round" stroke-miterlimit="10" width="18" height="12"/><path fill="#EBF3F7" stroke="#294C67" stroke-width="4" stroke-linecap="round" stroke-linejoin="round" stroke-miterlimit="10" d="M86.7 216.5c7 0 12 5 12 12h-12 -12C74.7 221.5 79.7 216.5 86.7 216.5z"/><rect x="32.7" y="216.5" fill="#EBF3F7" stroke="#294C67" stroke-width="4" stroke-linecap="round" stroke-linejoin="round" stroke-miterlimit="10" width="18" height="12"/><path fill="#EBF3F7" stroke="#294C67" stroke-width="4" stroke-linecap="round" stroke-linejoin="round" stroke-miterlimit="10" d="M32.7 216.5c-7 0-12 5.4-12 12h12 12C44.7 221.9 39.7 216.5 32.7 216.5z"/><path fill="#FEE2C0" stroke="#294C67" stroke-width="4" stroke-miterlimit="10" d="M64.1 112.5h-8.7c-2.4 0-4.7-0.8-6.5-2.4L36.6 99.7c-3.1-2.7-4.9-6.6-4.9-10.7V52.5c0-15.5 12.5-28 28-28h0c15.5 0 28 12.5 28 28v36.9c0 4.2-1.9 8.1-5.1 10.8l-12.1 10C68.7 111.7 66.4 112.5 64.1 112.5z"/><circle fill="#294C67" cx="46.7" cy="67.5" r="3"/><circle fill="#294C67" cx="73.7" cy="67.5" r="3"/><path fill="none" stroke="#294C67" stroke-width="4" stroke-linecap="round" stroke-linejoin="round" stroke-miterlimit="10" d="M55.7 69.5v8c0 2.2 1.8 4 4 4h0c2.2 0 4-1.8 4-4v-8"/><path fill="none" stroke="#294C67" stroke-width="3" stroke-linecap="round" stroke-linejoin="round" stroke-miterlimit="10" d="M48.3 90.6c2.9 1.1 6.8 2.1 11.4 2.1s8.5-1 11.4-2.1"/><path fill="#FEE2C0" stroke="#294C67" stroke-width="4" stroke-linecap="round" stroke-linejoin="round" stroke-miterlimit="10" d="M31.7 67.5L31.7 67.5l0 16h0c-3.9 0-7-3.1-7-7v-2C24.7 70.7 27.8 67.5 31.7 67.5z"/><path fill="#FEE2C0" stroke="#294C67" stroke-width="4" stroke-linecap="round" stroke-linejoin="round" stroke-miterlimit="10" d="M87.7 67.5L87.7 67.5l0 16h0c3.9 0 7-3.1 7-7v-2C94.7 70.7 91.5 67.5 87.7 67.5z"/><path fill="#F8876E" d="M78.7 119.5h-7v9c0 6.6-5.4 12-12 12s-12-5.4-12-12v-9h-7c-2.2 0-4 1.8-4 4v49h46v-49C82.7 121.3 80.9 119.5 78.7 119.5z"/><path fill="none" stroke="#294C67" stroke-width="4" stroke-linecap="round" stroke-linejoin="round" stroke-miterlimit="10" d="M78.7 119.5h-7v9c0 6.6-5.4 12-12 12s-12-5.4-12-12v-9h-7c-2.2 0-4 1.8-4 4v49h46v-49C82.7 121.3 80.9 119.5 78.7 119.5z"/><path fill="#FFFFFF" stroke="#294C67" stroke-width="2" stroke-linecap="round" stroke-linejoin="round" stroke-miterlimit="10" d="M58.7 138.5l-4.5-2.8c-1.6-1-3.6-0.7-4.9 0.6l-4.2 4.2c-0.8 0.8-2 0-1.6-1.1l8.5-22.9L58.7 138.5z"/><path fill="#FFFFFF" stroke="#294C67" stroke-width="2" stroke-linecap="round" stroke-linejoin="round" stroke-miterlimit="10" d="M60.7 138.5l4.5-2.8c1.6-1 3.6-0.7 4.9 0.6l4.2 4.2c0.8 0.8 2 0 1.6-1.1l-8.5-22.9L60.7 138.5z"/><path fill="none" stroke="#294C67" stroke-width="4" stroke-linecap="round" stroke-linejoin="round" stroke-miterlimit="10" d="M39.7 73.5h16v-12h-19v9C36.7 72.2 38 73.5 39.7 73.5z"/><path fill="none" stroke="#294C67" stroke-width="4" stroke-linecap="round" stroke-linejoin="round" stroke-miterlimit="10" d="M79.7 73.5h-16v-12h19v9C82.7 72.2 81.3 73.5 79.7 73.5z"/><line fill="none" stroke="#294C67" stroke-width="4" stroke-linecap="round" stroke-linejoin="round" stroke-miterlimit="10" x1="90.7" y1="61.5" x2="28.7" y2="61.5"/><rect x="4.7" y="166.5" fill="#73C996" width="612" height="70"/><defs><path id="SVGID_3_" d="M616.7 164.5H4.7v-12h612V164.5z"/></defs><use xlink:href="#SVGID_3_" overflow="visible" fill="#F8AD43"/><clipPath id="SVGID_4_"><use xlink:href="#SVGID_3_" overflow="visible"/></clipPath><path clip-path="url(#SVGID_4_)" fill="none" stroke="#BA8232" stroke-width="2" stroke-linecap="round" stroke-linejoin="round" stroke-miterlimit="10" d="M2.7 168.3c5.8-2.6 12.6-1.7 18.5 0.4s11.5 5.4 17.4 7.6"/><path clip-path="url(#SVGID_4_)" fill="none" stroke="#BA8232" stroke-width="2" stroke-linecap="round" stroke-linejoin="round" stroke-miterlimit="10" d="M1 159c10.6-0.7 19.8 7.6 30.4 9 2.8 0.4 5.7 0.2 8.1-1.1 2.4-1.4 4.2-4.2 3.7-6.9 -0.4-1.9-1.7-3.4-3.1-4.7 -4.2-3.7-10-5.6-15.5-5.1"/><path clip-path="url(#SVGID_4_)" fill="none" stroke="#BA8232" stroke-width="2" stroke-linecap="round" stroke-linejoin="round" stroke-miterlimit="10" d="M28.5 161c-3.8-4.6-8.3-8.7-13.3-12"/><path clip-path="url(#SVGID_4_)" fill="none" stroke="#BA8232" stroke-width="2" stroke-linecap="round" stroke-linejoin="round" stroke-miterlimit="10" d="M39 171.9c3-0.8 4.7-3.9 7.2-5.8 4.1-3.2 9.9-2.9 15.1-1.9 0.9 0.2 1.8 0.4 2.5 0.9 1.3 0.9 1.7 2.6 2.1 4.2 0.3 1.3 0.5 2.8-0.6 3.6 -0.4 0.3-1 0.4-1.5 0.5 -2 0.3-4.1 0.6-6 0 -1.9-0.6-3.7-2.3-3.6-4.4"/><path clip-path="url(#SVGID_4_)" fill="none" stroke="#BA8232" stroke-width="2" stroke-linecap="round" stroke-linejoin="round" stroke-miterlimit="10" d="M46.5 159.7c4.3-1 8.7-1.9 13-1 2.7 0.6 5.2 2 7.5 3.5 4.9 3.4 9.1 7.8 12.2 13"/><path clip-path="url(#SVGID_4_)" fill="none" stroke="#BA8232" stroke-width="2" stroke-linecap="round" stroke-linejoin="round" stroke-miterlimit="10" d="M66 154.1c7.2 3.3 11 11.2 17.8 15.3 4.2 2.5 9.3 3.3 14.2 3.4 2 0 4.3-0.1 5.6-1.7 0.8-1 0.9-2.3 1.1-3.5 0.2-2.2 0.3-4.5-0.5-6.6 -0.9-2.4-3-4.1-5.4-5.1 -2.4-1-4.9-1.3-7.5-1.3 -2.1-0.1-4.5 0.2-5.6 1.9 -1.1 1.7-0.3 4 1.1 5.4 1.5 1.4 3.5 2 5.4 2.5"/><path clip-path="url(#SVGID_4_)" fill="none" stroke="#BA8232" stroke-width="2" stroke-linecap="round" stroke-linejoin="round" stroke-miterlimit="10" d="M109.3 161.7c12.1 9.6 26.7 16.2 41.9 18.9"/><path clip-path="url(#SVGID_4_)" fill="none" stroke="#BA8232" stroke-width="2" stroke-linecap="round" stroke-linejoin="round" stroke-miterlimit="10" d="M118.6 163.4c10.3 2.4 21.2 1.8 31.6-0.2 10.4-2 20.5-5.4 30.6-8.9"/><path clip-path="url(#SVGID_4_)" fill="none" stroke="#BA8232" stroke-width="2" stroke-linecap="round" stroke-linejoin="round" stroke-miterlimit="10" d="M152 153.8c-6.5 5.1-15.4 6-23.6 4.7 -8.1-1.3-15.8-4.7-23.6-7.4"/><path clip-path="url(#SVGID_4_)" fill="none" stroke="#BA8232" stroke-width="2" stroke-linecap="round" stroke-linejoin="round" stroke-miterlimit="10" d="M136.3 173.4c9.9-2.7 19.1-7.6 29-10.6 9.8-3 21.1-3.9 30 1.3 0.6 0.4 1.3 0.8 1.5 1.6 0.1 0.5-0.1 1.1-0.4 1.5 -1.8 3.1-4.9 5.4-8.4 6.4s-7.2 0.8-10.7 0c-3.5-0.8-6.7-2.3-9.6-4.4 3.3-1.8 7.3-2.5 11.1-1.8"/><path clip-path="url(#SVGID_4_)" fill="none" stroke="#BA8232" stroke-width="2" stroke-linecap="round" stroke-linejoin="round" stroke-miterlimit="10" d="M195 158.4c6.9 2.8 12.3 8.4 17.3 14 2.1 2.3 4.4 4.8 7.4 5.4"/><path clip-path="url(#SVGID_4_)" fill="none" stroke="#BA8232" stroke-width="2" stroke-linecap="round" stroke-linejoin="round" stroke-miterlimit="10" d="M209 163.5c6 4.1 13 6.5 20.2 7 1.5 0.1 3 0.1 4.5-0.3 2.5-0.8 4.4-3 5.7-5.4 1.1-2 2-4.3 1.3-6.5 -0.5-1.5-1.7-2.7-2.9-3.7 -2.9-2.2-6.6-3.3-10.2-3.2 -1.9 0.1-3.7 0.4-5.3 1.5 -1.5 1-2.7 2.8-2.6 4.7 0.1 2.6 2.5 4.6 5 5.2 2.5 0.6 5.2 0.1 7.7-0.5"/><path clip-path="url(#SVGID_4_)" fill="none" stroke="#BA8232" stroke-width="2" stroke-linecap="round" stroke-linejoin="round" stroke-miterlimit="10" d="M212.5 161.5c-2.9-2.7-5.2-5.9-6.9-9.4"/><path clip-path="url(#SVGID_4_)" fill="none" stroke="#BA8232" stroke-width="2" stroke-linecap="round" stroke-linejoin="round" stroke-miterlimit="10" d="M244.1 171.5c1.7-4.6 6.6-7.1 11.4-8.2 11.1-2.6 23.5 0.8 31.7 8.7"/><path clip-path="url(#SVGID_4_)" fill="none" stroke="#BA8232" stroke-width="2" stroke-linecap="round" stroke-linejoin="round" stroke-miterlimit="10" d="M246 162.1c9.3-5.1 18.7-10.2 28-15.2"/><path clip-path="url(#SVGID_4_)" fill="none" stroke="#BA8232" stroke-width="2" stroke-linecap="round" stroke-linejoin="round" stroke-miterlimit="10" d="M263.9 158.4c4.9-1.7 10.4 0.2 15 2.7 7 3.8 13.2 8.8 18.3 14.9"/><path clip-path="url(#SVGID_4_)" fill="none" stroke="#BA8232" stroke-width="2" stroke-linecap="round" stroke-linejoin="round" stroke-miterlimit="10" d="M284.9 159.4c7.8 0.9 13 8.7 20.4 11.4 3.3 1.2 6.9 1.3 10.4 1 2.1-0.2 4.4-0.6 5.9-2.2 1.4-1.4 1.9-3.6 1.9-5.6 0-5.7-3.7-11.2-8.9-13.4 -5.3-2.2-11.8-0.9-15.8 3.1 -0.8 0.8-1.6 1.8-1.8 3 -0.5 2.3 1.1 4.5 3 5.9 3.2 2.3 7.5 3 11.2 1.9 1.3-0.4 2.8-1.6 2.2-2.8 -0.2-0.4-0.6-0.7-1-0.9 -1.7-1.1-3.6-2-5.6-2.6"/><path clip-path="url(#SVGID_4_)" fill="none" stroke="#BA8232" stroke-width="2" stroke-linecap="round" stroke-linejoin="round" stroke-miterlimit="10" d="M326.8 154.4c8.4 2.9 17.2 5.8 26 4.8 5.3-0.6 10.3-2.5 15.3-4.3 5.5-2 11.2-3.7 16.9-5"/><path clip-path="url(#SVGID_4_)" fill="none" stroke="#BA8232" stroke-width="2" stroke-linecap="round" stroke-linejoin="round" stroke-miterlimit="10" d="M328.9 161c6.8 3.3 14.6 3.7 22.1 3.3 7.5-0.4 15-1.6 22.5-1 15.3 1.1 29.2 9 44.2 12.2"/><path clip-path="url(#SVGID_4_)" fill="none" stroke="#BA8232" stroke-width="2" stroke-linecap="round" stroke-linejoin="round" stroke-miterlimit="10" d="M376.2 170.4c-14.9-1.9-30-2.4-45.1-1.5"/><path clip-path="url(#SVGID_4_)" fill="none" stroke="#BA8232" stroke-width="2" stroke-linecap="round" stroke-linejoin="round" stroke-miterlimit="10" d="M381.2 159.3c5.3-0.5 10.7 0 15.9 1.5 8 2.4 15.4 7.1 23.7 8.1 2.7 0.3 5.5 0.2 7.9-1 2.4-1.2 4.3-3.7 4.2-6.4 -0.1-3-2.5-5.5-5.2-6.6 -2.7-1.1-5.8-1.1-8.7-1.1 -0.8 0-1.6 0-2.3 0.3 -2.2 1-1.9 4.6 0.1 6.1 1.9 1.5 4.6 1.6 7 1.5"/><path clip-path="url(#SVGID_4_)" fill="none" stroke="#BA8232" stroke-width="2" stroke-linecap="round" stroke-linejoin="round" stroke-miterlimit="10" d="M406.8 159c-7-7.4-17.2-10.7-27.1-13.5"/><path clip-path="url(#SVGID_4_)" fill="none" stroke="#BA8232" stroke-width="2" stroke-linecap="round" stroke-linejoin="round" stroke-miterlimit="10" d="M430.9 174.2c5-0.2 8.1-5.4 12.3-7.9 3.5-2.1 7.8-2.3 11.9-2.3 5.2 0 10.9 0.5 14.4 4.3 2.6 2.8 3.3 6.9 5.6 9.9"/><path clip-path="url(#SVGID_4_)" fill="none" stroke="#BA8232" stroke-width="2" stroke-linecap="round" stroke-linejoin="round" stroke-miterlimit="10" d="M438.5 162.7c1.9-1.3 3.6-2.8 5.4-4.1 6.9-4.9 15.3-6.8 23.5-8.6"/><path clip-path="url(#SVGID_4_)" fill="none" stroke="#BA8232" stroke-width="2" stroke-linecap="round" stroke-linejoin="round" stroke-miterlimit="10" d="M453.7 159.1c10.5-2.5 21.6 0.1 31.4 4.5 2.2 1 4.5 2.2 6.1 4s2.4 4.6 1.3 6.8c-0.3 0.6-0.8 1.3-1.4 1.5 -0.4 0.2-0.8 0.2-1.2 0.3 -2.8 0.2-5.8 0.2-8.4-1 -2.6-1.1-4.8-3.5-5.1-6.3 1.1-1.3 3-2 4.6-1.7"/><path clip-path="url(#SVGID_4_)" fill="none" stroke="#BA8232" stroke-width="2" stroke-linecap="round" stroke-linejoin="round" stroke-miterlimit="10" d="M470.7 153.4c7.2-1.5 14.3 2.6 20.5 6.6 6.7 4.2 13.5 8.6 18.2 14.8"/><path clip-path="url(#SVGID_4_)" fill="none" stroke="#BA8232" stroke-width="2" stroke-linecap="round" stroke-linejoin="round" stroke-miterlimit="10" d="M493.7 152.7c8.9 1.7 14.9 9.9 22.5 14.9 7.6 5 17.3 6.9 26.3 4.9 1.7-0.4 3.5-1 4.2-2.6 0.6-1.5-0.2-3.2-1-4.5 -5-7.5-14.3-11-23.2-11.5 -2.8-0.2-6.3 0.3-7.4 2.9 -1 2.3 0.5 4.9 2.3 6.6 2.6 2.4 6 3.8 9.5 3.9 1.1 0 2.3-0.1 3.2-0.7s1.4-1.9 0.9-2.9c-0.4-0.7-1.1-1-1.8-1.3 -1.4-0.6-2.8-1.2-4.2-1.8"/><path clip-path="url(#SVGID_4_)" fill="none" stroke="#BA8232" stroke-width="2" stroke-linecap="round" stroke-linejoin="round" stroke-miterlimit="10" d="M543.7 153.8c5.9 0.6 11.2 4 15.2 8.5 3.9 4.5 6.6 9.8 9.1 15.2"/><path clip-path="url(#SVGID_4_)" fill="none" stroke="#BA8232" stroke-width="2" stroke-linecap="round" stroke-linejoin="round" stroke-miterlimit="10" d="M549.8 165.4c4.5 4.9 5.7 12.5 3.1 18.6"/><path clip-path="url(#SVGID_4_)" fill="none" stroke="#BA8232" stroke-width="2" stroke-linecap="round" stroke-linejoin="round" stroke-miterlimit="10" d="M556.9 153c6.1 2.9 10.2 8.6 15.9 12.3 2 1.3 4.4 2.4 6.8 2.2 4.2-0.4 7-4.7 7.7-8.9 0.2-1.4 0.3-2.8-0.1-4.1 -0.9-2.6-3.6-4-6.2-4.9 -2.5-0.8-5.2-1.4-7.6-0.4 -2.4 1-4.2 3.9-3.1 6.2 1.2 2.6 4.7 2.9 7.6 2.8"/><path clip-path="url(#SVGID_4_)" fill="none" stroke="#BA8232" stroke-width="2" stroke-linecap="round" stroke-linejoin="round" stroke-miterlimit="10" d="M593.3 160.5c-0.6 5.8-5.4 10.8-11.1 11.8"/><path clip-path="url(#SVGID_4_)" fill="none" stroke="#BA8232" stroke-width="2" stroke-linecap="round" stroke-linejoin="round" stroke-miterlimit="10" d="M594.9 152.5c3.7 1.3 6.4 4.7 6.9 8.6 0.5 3.8-1.3 7.9-4.5 10.1"/><path clip-path="url(#SVGID_4_)" fill="none" stroke="#BA8232" stroke-width="2" stroke-linecap="round" stroke-linejoin="round" stroke-miterlimit="10" d="M604.4 174.5c2-0.6 3.4-2.4 4.2-4.3 0.8-1.9 1-4 1.3-6.1 0.5-3.6 1.1-7.1 2-10.6 0.4-1.5 0.8-3 2-4"/><use xlink:href="#SVGID_3_" overflow="visible" fill="none" stroke="#294C67" stroke-width="6" stroke-linecap="round" stroke-linejoin="round" stroke-miterlimit="10"/><path fill="#EBF3F7" stroke="#294C67" stroke-width="6" stroke-linejoin="round" stroke-miterlimit="10" d="M485.7 152.5h-52v0c0-6.6 5.4-12 12-12h28C480.3 140.5 485.7 145.9 485.7 152.5L485.7 152.5z"/><line fill="none" stroke="#294C67" stroke-width="6" stroke-linejoin="round" stroke-miterlimit="10" x1="459.7" y1="112.5" x2="459.7" y2="140.5"/><line fill="none" stroke="#294C67" stroke-width="6" stroke-linecap="round" stroke-linejoin="round" stroke-miterlimit="10" x1="409.7" y1="3.5" x2="508.7" y2="102.5"/><circle fill="#3EB3CF" stroke="#294C67" stroke-width="6" stroke-linecap="round" stroke-linejoin="round" stroke-miterlimit="10" cx="459.2" cy="53" r="50"/><ellipse fill="none" stroke="#294C67" stroke-width="2" stroke-linecap="round" stroke-linejoin="round" stroke-miterlimit="10" cx="459.2" cy="53" rx="41" ry="50"/><ellipse fill="none" stroke="#294C67" stroke-width="2" stroke-linecap="round" stroke-linejoin="round" stroke-miterlimit="10" cx="459.2" cy="53" rx="30" ry="50"/><ellipse fill="none" stroke="#294C67" stroke-width="2" stroke-linecap="round" stroke-linejoin="round" stroke-miterlimit="10" cx="459.2" cy="53" rx="10" ry="50"/><ellipse fill="none" stroke="#294C67" stroke-width="2" stroke-linecap="round" stroke-linejoin="round" stroke-miterlimit="10" cx="459.2" cy="53" rx="50" ry="41"/><ellipse fill="none" stroke="#294C67" stroke-width="2" stroke-linecap="round" stroke-linejoin="round" stroke-miterlimit="10" cx="459.2" cy="53" rx="50" ry="30"/><ellipse fill="none" stroke="#294C67" stroke-width="2" stroke-linecap="round" stroke-linejoin="round" stroke-miterlimit="10" cx="459.2" cy="53" rx="50" ry="10"/><path fill="none" stroke="#294C67" stroke-width="6" stroke-linecap="round" stroke-linejoin="round" stroke-miterlimit="10" d="M501.6 95.4c-23.4 23.4-61.4 23.4-84.9 0s-23.4-61.4 0-84.9"/><path fill="#FFFFFF" stroke="#294C67" stroke-width="6" stroke-linejoin="round" stroke-miterlimit="10" d="M459.7 131.5L459.7 131.5c-4.4 0-8 3.6-8 8v1h16v-1C467.7 135.1 464.1 131.5 459.7 131.5z"/><path fill="#3D7B99" stroke="#294C67" stroke-width="4" stroke-linecap="round" stroke-linejoin="round" stroke-miterlimit="10" d="M355.7 152.5v-93h29v93H355.7z"/><rect x="363.7" y="71.5" fill="#A1CDE6" width="13" height="9"/><rect x="363.7" y="82.5" fill="#A1CDE6" width="13" height="3"/><rect x="361.7" y="61.5" fill="#294C67" width="2" height="89"/><rect x="376.7" y="61.5" fill="#294C67" width="2" height="89"/><path fill="#F8876E" stroke="#294C67" stroke-width="4" stroke-linecap="round" stroke-linejoin="round" stroke-miterlimit="10" d="M335.8 149.5l12-91.2 7.9 1 -12 91.2L335.8 149.5z"/><rect x="290.9" y="92.6" transform="matrix(-0.1307 0.9914 -0.9914 -0.1307 476.9323 -213.0148)" fill="#FFFFFF" stroke="#294C67" stroke-width="4" stroke-linecap="round" stroke-linejoin="round" stroke-miterlimit="10" width="82" height="20"/><rect x="335.8" y="64.2" transform="matrix(-0.9914 -0.1307 0.1307 -0.9914 657.2287 249.6084)" fill="#C6D7E0" width="2" height="78"/><rect x="331.8" y="63.7" transform="matrix(-0.9914 -0.1307 0.1307 -0.9914 649.3998 248.0486)" fill="#C6D7E0" width="2" height="78"/><rect x="327.9" y="63.2" transform="matrix(-0.9914 -0.1307 0.1307 -0.9914 641.5708 246.4887)" fill="#C6D7E0" width="2" height="78"/><rect x="323.9" y="62.7" transform="matrix(-0.9914 -0.1307 0.1307 -0.9914 633.7419 244.9289)" fill="#C6D7E0" width="2" height="78"/><path fill="#F8876E" stroke="#294C67" stroke-width="4" stroke-linecap="round" stroke-linejoin="round" stroke-miterlimit="10" d="M308 145.8l12-91.2 7.9 1 -12 91.2L308 145.8z"/><path fill="none" stroke="#294C67" stroke-width="8" stroke-linecap="round" stroke-miterlimit="10" d="M581.8 53.6c0 0 1.7-9.8 10.4-9.8"/><path fill="none" stroke="#F8AD43" stroke-width="2" stroke-linecap="round" stroke-miterlimit="10" d="M581.8 53.6c0 0 1.7-9.8 10.4-9.8"/><path fill="#F8876E" stroke="#294C67" stroke-width="4" stroke-miterlimit="10" d="M582.6 51.6c0 0-19.9-5.2-19.9 12.6s11.5 24.1 14.7 24.1c3.1 0 4.2-1 5.2-1s2.1 1 5.2 1c3.1 0 14.7-6.3 14.7-24.1S582.6 51.6 582.6 51.6z"/><path fill="#73C996" stroke="#294C67" stroke-width="4" stroke-miterlimit="10" d="M581.5 45.5c0 0-10.4 1.7-10.4-10.4C571.1 35.2 581.5 33.4 581.5 45.5z"/><polygon fill="#FEE2C0" stroke="#294C67" stroke-width="4" stroke-linecap="round" stroke-linejoin="round" stroke-miterlimit="10" points=" 261.7 73.5 256.7 59.5 251.7 73.5 "/><rect x="251.7" y="73.5" fill="#F8876E" stroke="#294C67" stroke-width="4" stroke-linecap="round" stroke-linejoin="round" stroke-miterlimit="10" width="10" height="40"/><polygon fill="#FEE2C0" stroke="#294C67" stroke-width="4" stroke-linecap="round" stroke-linejoin="round" stroke-miterlimit="10" points=" 232.6 76.8 222.6 65.7 223.4 80.6 "/><rect x="230.6" y="77.1" transform="matrix(0.9239 -0.3827 0.3827 0.9239 -19.2379 97.5734)" fill="#F8AD43" stroke="#294C67" stroke-width="4" stroke-linecap="round" stroke-linejoin="round" stroke-miterlimit="10" width="10" height="40"/><path fill="#EBF3F7" stroke="#294C67" stroke-width="4" stroke-linecap="round" stroke-linejoin="round" stroke-miterlimit="10" d="M251.7 150.5h-14c-3.3 0-6-2.7-6-6l0 0h26l0 0C257.7 147.8 255 150.5 251.7 150.5z"/><path fill="none" stroke="#294C67" stroke-width="4" stroke-linecap="round" stroke-linejoin="round" stroke-miterlimit="10" d="M263.7 110.5h5c5 0 9 4 9 9v0c0 5-4 9-9 9h-5"/><path fill="#EBF3F7" stroke="#294C67" stroke-width="4" stroke-linecap="round" stroke-linejoin="round" stroke-miterlimit="10" d="M225.7 98.5h38v40c0 3.3-2.7 6-6 6h-26c-3.3 0-6-2.7-6-6V98.5z"/><path fill="#F8876E" stroke="#294C67" stroke-width="4" stroke-linecap="round" stroke-linejoin="round" stroke-miterlimit="10" d="M535.7 98.5h88v-10h-88c-8.8 0-16 7.2-16 16v0c0 8.8 7.2 16 16 16h88v-10h-88c-3.3 0-6-2.7-6-6S532.4 98.5 535.7 98.5z"/><path fill="#FFFFFF" stroke="#294C67" stroke-width="4" stroke-linecap="round" stroke-linejoin="round" stroke-miterlimit="10" d="M535.7 110.5h82v-12h-82c-3.3 0-6 2.7-6 6v0C529.7 107.8 532.4 110.5 535.7 110.5z"/><path fill="#3EB3CF" stroke="#294C67" stroke-width="4" stroke-linecap="round" stroke-linejoin="round" stroke-miterlimit="10" d="M515.7 130.5h88v-10h-88c-8.8 0-16 7.2-16 16v0c0 8.8 7.2 16 16 16h88v-10h-88c-3.3 0-6-2.7-6-6S512.4 130.5 515.7 130.5z"/><path fill="#FFFFFF" stroke="#294C67" stroke-width="4" stroke-linecap="round" stroke-linejoin="round" stroke-miterlimit="10" d="M515.7 142.5h82v-12h-82c-3.3 0-6 2.7-6 6v0C509.7 139.8 512.4 142.5 515.7 142.5z"/></g></svg>